<svg width="195" height="226" viewBox="0 0 195 226" fill="none" xmlns="http://www.w3.org/2000/svg">
<g clip-path="url(#clip0_103_1247)">
<path d="M6.08998 85.0726C5.95998 85.3426 5.83998 85.6026 5.72998 85.8626C5.78998 85.8526 5.85998 85.8526 5.92998 85.8426C5.96998 85.5826 6.03998 85.3326 6.08998 85.0726Z" fill="#FAAF78"/>
<path d="M84.9199 125.763C84.9399 125.823 84.9599 125.873 84.9799 125.933C85.2099 125.323 85.4099 124.683 85.5999 124.033C85.5599 124.053 85.5099 124.063 85.4699 124.073C85.3199 124.663 85.1399 125.223 84.9199 125.763Z" fill="#FAAF78"/>
<path d="M92.0199 92.0825C91.9799 92.2625 91.9299 92.4325 91.8599 92.5925C92.2999 92.4225 92.6199 92.2125 92.8099 91.8825L92.9299 91.6725C93.9299 89.8825 94.6099 88.5125 94.6499 87.2925C94.4199 88.3325 94.0799 89.4025 93.5599 90.3325C93.1599 91.0625 92.6199 91.6425 92.0199 92.0925V92.0825Z" fill="#FAAF78"/>
<path d="M10.07 114.853C10.03 115.323 10 115.793 10 116.243C10 116.793 10.03 117.383 10.08 117.993C10.04 116.953 10.04 115.913 10.07 114.863V114.853Z" fill="#FAAF78"/>
<path d="M11.5498 104.353C11.5498 104.433 11.5398 104.523 11.5298 104.603C11.5498 104.523 11.5598 104.453 11.5698 104.373C11.5698 104.373 11.5498 104.353 11.5398 104.353H11.5498Z" fill="#FAAF78"/>
<path d="M70.7898 149.713C73.5898 152.313 76.4598 154.813 79.3698 157.283C81.3898 156.933 83.4798 157.203 85.5598 157.833C86.5498 157.413 87.6398 157.243 88.6898 157.443C91.8198 158.053 94.8598 158.853 97.8798 159.823C98.6198 158.223 100.08 157.053 102.15 157.303C107.31 157.933 111.65 159.763 115.21 163.563C115.59 163.583 115.98 163.693 116.38 163.943C118.66 165.393 120.88 166.923 123.06 168.503C124.21 168.313 125.36 168.113 126.5 167.913C126.79 167.433 127.09 166.953 127.38 166.463C128.04 165.373 129.34 164.973 130.5 165.443C131.1 165.683 131.49 166.083 131.72 166.573C132.03 166.243 132.33 165.893 132.65 165.573C134.25 163.933 136.77 165.263 136.92 167.343C136.94 167.693 136.97 168.043 136.99 168.403C137.2 168.273 137.41 168.143 137.62 168.013C138.67 167.373 140.12 167.723 140.88 168.633C141 168.573 141.11 168.513 141.24 168.463C141.38 167.293 142.21 166.243 143.64 166.373C144.11 166.413 144.57 166.493 145.01 166.603C145.81 166.023 146.88 165.833 147.7 166.453C148.93 167.393 150 168.393 150.94 169.563C151.07 169.583 151.21 169.603 151.34 169.623C152.41 166.513 153.66 163.473 155.27 160.583C156.53 158.323 159.82 159.453 159.93 161.843C159.96 162.423 159.98 163.003 160.01 163.573C160.67 162.553 161.34 161.533 162.05 160.543C162.8 159.503 163.95 159.033 165.17 159.523C166.21 159.943 167.07 161.333 166.62 162.473C165.59 165.053 164.56 167.633 163.54 170.213C163.6 170.143 163.65 170.073 163.71 170.003C164.47 169.093 165.2 168.153 166.29 167.603C166.57 167.463 166.86 167.353 167.15 167.263C169.35 163.113 171.22 158.803 172.71 154.333C173.2 152.873 175.25 151.843 176.55 152.893C177 152.073 177.81 151.733 178.63 151.783C178.34 146.863 177.73 141.963 174.56 138.383C173.46 137.133 172.97 135.843 172.54 134.713C172.07 133.473 171.7 132.483 170.6 131.643C169.84 131.093 165.72 130.893 163.27 130.783C159.01 130.583 156.34 130.413 154.99 129.563C150.69 126.833 145.35 126.083 139.69 125.293C138.07 125.063 136.4 124.833 134.76 124.553C125.09 122.883 116.35 121.923 108.03 121.613C105.31 121.513 102.31 121.193 99.4198 120.883C96.0498 120.523 92.5798 120.163 89.4798 120.123C88.8398 124.913 87.1398 130.053 84.1198 132.843C82.1398 134.663 79.4398 132.923 77.5598 131.423C77.1998 133.053 76.5898 134.703 76.0298 136.233C75.7698 136.933 75.5298 137.603 75.3198 138.223C75.2698 138.363 75.2198 138.673 75.1798 138.943C75.0098 139.973 74.5798 142.713 72.0398 142.323C70.2298 142.043 68.8698 141.863 67.4998 141.713C66.3298 141.583 65.3798 140.843 64.6198 140.053C64.4098 141.123 64.0098 142.163 63.5098 143.183C65.6398 145.673 69.0298 148.073 70.7998 149.713H70.7898Z" fill="#FAAF78"/>
<path d="M175.08 170.343C174.95 170.583 174.77 170.783 174.56 170.953C174.48 171.133 174.4 171.313 174.32 171.483C174.48 171.353 174.63 171.223 174.81 171.103C175.94 170.323 177.18 167.333 177.69 165.383C177.58 165.533 177.46 165.673 177.34 165.813C176.65 167.353 175.9 168.863 175.09 170.333L175.08 170.343Z" fill="#FAAF78"/>
<path d="M54.4899 161.323C54.4899 161.323 54.4199 161.293 54.3799 161.283C55.8099 162.763 57.3099 164.163 58.8899 165.483C57.3499 164.173 55.8699 162.783 54.4799 161.323H54.4899Z" fill="#FAAF78"/>
<path d="M65.3398 214.923C65.3098 215.053 65.2998 215.173 65.2598 215.303C65.6098 214.943 65.7898 214.323 65.9298 213.613C65.8798 213.653 65.8298 213.683 65.7798 213.723C65.6398 214.123 65.4998 214.523 65.3398 214.923Z" fill="#FAAF78"/>
<path d="M60.6799 166.943C60.6599 166.923 60.6299 166.903 60.6099 166.883C60.6399 166.903 60.6499 166.933 60.6799 166.953V166.943Z" fill="#FAAF78"/>
<path d="M52.6401 170.023C52.5401 169.963 52.4501 169.893 52.3501 169.833C52.4301 169.913 52.5101 169.993 52.5801 170.063C52.6001 170.053 52.6101 170.033 52.6301 170.023H52.6401Z" fill="#FAAF78"/>
<path d="M115.04 185.343C115.04 185.503 115.04 185.653 115.04 185.813C115.15 185.633 115.28 185.453 115.4 185.283C115.28 185.303 115.16 185.333 115.05 185.353L115.04 185.343Z" fill="#FAAF78"/>
<path d="M42.98 94.6326C43.17 95.2626 43.54 95.8026 44.31 96.2426C44.49 96.3426 44.69 96.4326 44.9 96.5126C44.98 96.3926 45.07 96.2826 45.16 96.1626C44.25 95.9626 43.44 95.4326 42.98 94.6226V94.6326Z" fill="#FAAF78"/>
<path d="M55.5098 72.9725C55.3098 72.8125 55.0998 72.6625 54.9698 72.5425C53.7098 71.4025 51.6498 71.2125 50.0398 71.2125C49.6098 71.2125 45.8998 72.1725 46.1498 72.4925C46.5798 73.0425 46.9798 74.2925 47.2598 75.0325C47.8298 76.5725 48.4998 78.0225 49.4298 79.3725C51.0098 81.6625 53.2698 80.2825 55.0198 79.1525C56.5398 78.1725 58.2898 73.0125 55.5098 72.9825V72.9725Z" fill="#E8F162"/>
<path d="M65.8301 52.7126C65.8301 52.7126 65.8301 52.7126 65.8401 52.7226C65.9301 53.8126 66.8001 54.4126 67.7501 54.8726C67.6601 54.8626 67.5701 54.8526 67.4801 54.8426C66.9701 54.8026 67.2801 55.2826 67.4801 55.4726C68.1301 56.0926 69.1301 56.4826 69.9601 56.7926C70.0001 56.8126 70.3601 56.9026 70.8301 57.0126C71.6601 57.8426 72.5901 58.5826 73.5401 58.5826C75.3301 58.5826 76.0301 57.3126 75.1201 55.8926C74.4801 54.9026 73.3501 53.9326 72.1901 53.3126C72.1901 53.2926 72.1701 53.2826 72.1601 53.2626C71.2101 51.5626 69.0001 51.3826 67.1901 51.6426C66.4901 51.2626 65.9901 51.1726 65.8601 51.9226C65.3901 52.0626 65.2101 52.2426 65.8301 52.7226V52.7126Z" fill="#E8F162"/>
<path d="M38.3402 49.6626C37.3002 49.6226 36.2002 49.6626 35.2602 49.9926C33.7202 50.5326 31.3402 51.6126 30.4102 53.0826C29.8902 53.9026 30.5702 53.8926 31.2802 53.7126C31.2302 53.7626 31.1802 53.8226 31.1302 53.8726C30.4102 54.2826 29.7302 54.7326 29.0902 55.2026C27.5002 56.3926 30.1702 55.8126 30.9902 55.6126C31.0102 55.6126 31.0302 55.6326 31.0502 55.6326C33.6602 56.5926 35.8302 54.4326 37.8202 53.0726L37.8702 53.0326C38.7102 52.4626 39.5402 51.8926 40.2702 51.1826C40.2802 51.1726 40.8802 50.6026 40.8102 50.5926C40.5402 50.5326 40.2502 50.5126 39.9502 50.5226C40.1402 50.1026 40.1102 49.7526 39.4802 49.7026C39.1102 49.6826 38.7302 49.6526 38.3302 49.6426L38.3402 49.6626Z" fill="#E8F162"/>
<path d="M36.4701 61.1526C36.4701 61.1526 36.3901 61.0926 36.3501 61.0626C36.1201 60.9326 35.9501 60.9426 35.8201 61.0426C35.6301 60.5326 35.1201 60.5226 34.6201 60.9626C34.4201 61.1426 34.2501 61.3426 34.1001 61.5726C33.9501 61.6626 33.8101 61.7626 33.6801 61.8926C32.7801 62.8126 32.1601 64.1926 32.3701 65.5026C32.5201 66.4526 33.4101 66.3826 34.0001 65.8626C34.3901 65.5126 34.7301 65.1126 35.0101 64.6726C35.5201 64.6126 36.1601 63.3426 36.2401 63.0526C36.3001 62.8526 36.3301 62.6626 36.3301 62.4926C36.6501 61.9426 36.7701 61.4326 36.4701 61.1426V61.1526Z" fill="#E8F162"/>
<path d="M64.9199 66.9926C64.9199 66.9926 64.9299 66.9626 64.9399 66.9526C65.1099 67.2526 65.3299 67.3326 65.5899 66.8226C65.7499 66.5126 65.8299 66.1426 65.8599 65.7526C65.9199 64.7926 65.6599 63.6826 65.5099 62.8826C65.2299 61.3926 64.4899 61.4426 63.9699 62.1226C63.8799 62.1226 63.7799 62.1426 63.6799 62.1826C63.0599 62.4026 63.2299 64.0926 63.4899 65.3826C63.6399 67.1326 64.0599 69.1326 64.9399 67.0026L64.9199 66.9926Z" fill="#E8F162"/>
<path d="M75.12 36.1425C75.38 36.6225 75.71 37.0425 76.09 37.4125C75.91 37.6425 75.78 37.9025 75.69 38.1825C75.14 38.4025 74.65 38.7825 74.37 39.2525C73.7 40.4025 74.09 41.5725 74.95 42.3925C75.28 42.9225 75.81 43.3425 76.45 43.5925C76.48 43.6025 76.51 43.6225 76.54 43.6325C77.34 44.2325 78.13 44.8425 78.93 45.4425C79.78 46.0825 81 46.7925 81.53 47.6025C82.13 48.5425 83.25 49.0525 84.35 48.7525C85.32 48.4825 86.32 47.4125 86.19 46.3425C86.14 45.9625 86.09 45.5825 86.06 45.2125C86.98 45.1525 87.82 44.6525 88.2 43.7125C88.37 43.2825 88.42 42.7825 88.35 42.3025C89.06 41.5525 89.33 40.1925 88.71 39.3125C88.44 38.9325 88.2 38.5325 87.94 38.1425C88.05 37.7225 88.16 37.3025 88.24 36.8725C88.87 33.5425 88.75 30.1625 89.21 26.8225C89.2 26.8225 89.19 26.8225 89.18 26.8225C89.23 26.6125 89.27 26.3925 89.3 26.1625C89.46 24.9525 88.23 23.8325 87.13 23.7025C86.03 23.5725 84.56 24.2525 84.39 25.4925C84.36 25.7125 84.34 25.9325 84.31 26.1625C84.31 26.1625 84.31 26.1625 84.3 26.1625C84.32 26.0425 84.09 26.5025 84.04 26.5725C83.87 26.8325 83.71 27.0225 83.47 27.2725C82.94 27.8425 82.38 28.3825 81.85 28.9625C80.94 29.0725 80.07 29.6625 79.69 30.7125C79.44 31.4325 79.18 32.1525 78.93 32.8625C78.93 32.8625 78.93 32.8725 78.93 32.8825C78.6 32.7325 78.28 32.5925 77.96 32.4625C77.06 32.1025 75.87 32.6425 75.33 33.3625C74.72 34.1825 74.65 35.2325 75.13 36.1425H75.12Z" fill="#FDF7F0"/>
<path d="M16.9302 30.1325C18.8202 34.8025 21.2902 39.1925 24.3602 43.1825C25.1802 44.2525 26.4902 44.8325 27.7802 44.0825C29.3402 43.1725 30.8002 42.0525 32.0302 40.7325C32.6702 40.0525 33.3002 39.3125 33.5002 38.3825C33.7802 37.0925 33.3202 36.0625 32.5502 35.0625C30.5102 32.4125 29.3202 29.3525 28.4002 26.1725C27.9202 24.5025 27.6502 22.6025 26.4302 21.2625C25.8302 20.6025 25.0502 20.2125 24.2402 20.0725C24.2402 19.9225 24.2102 19.7725 24.1702 19.6325C23.7802 18.2025 22.4302 17.6825 21.0902 17.8825C18.7202 18.2525 16.9702 20.2125 16.1802 22.3725C15.2502 24.9025 15.9502 27.7225 16.9202 30.1225L16.9302 30.1325Z" fill="#FDF7F0"/>
<path d="M14.97 75.5725C14.74 75.5125 14.5 75.4625 14.27 75.4225C14.27 75.5925 14.27 75.7525 14.27 75.9225C14.49 75.7725 14.72 75.6526 14.96 75.5826L14.97 75.5725Z" fill="#FDF7F0"/>
<path d="M88.48 77.1526C88.74 77.1826 88.99 77.2426 89.22 77.3326C89.22 76.9926 89.15 76.6526 89.03 76.3726C88.91 76.1026 88.77 75.8926 88.6 75.7026C88.69 76.1826 88.65 76.7026 88.48 77.1526Z" fill="#FDF7F0"/>
<path d="M52.3801 88.3925C52.8601 87.1225 52.3801 85.7425 51.5201 84.7725C50.2901 83.3625 47.9201 84.1225 47.3901 85.7725C46.2501 86.5225 45.7401 87.6925 45.2301 88.9225C45.3101 88.7225 45.4001 88.5225 45.4801 88.3225C45.3001 88.7425 45.0801 89.1425 44.8201 89.5225C44.5001 89.8725 44.1601 90.1925 43.8101 90.5225C43.5301 90.7825 43.2901 91.0925 43.0901 91.4225C42.6401 92.1725 42.4401 93.0625 42.6801 93.9425C42.7501 94.1925 42.8601 94.4225 42.9801 94.6325C43.4401 95.4425 44.2401 95.9725 45.1601 96.1725C45.3701 96.2225 45.5901 96.2525 45.8001 96.2625C46.6701 96.3025 47.6301 96.0025 48.3701 95.5525C49.1401 95.0825 49.8401 94.4025 50.2601 93.6025C50.6501 92.8625 50.8701 92.0725 51.0801 91.2725C51.1101 91.1525 51.1401 91.0425 51.1701 90.9225C51.2801 90.5025 51.3901 90.0925 51.5001 89.6725C51.9101 89.3325 52.1801 88.9225 52.3701 88.3925H52.3801Z" fill="#F5BCD6"/>
<path d="M10.2099 82.6126C10.4599 83.5626 11.3299 84.2926 12.2899 84.4026C13.3699 84.5326 14.1499 84.0426 14.7799 83.2126C14.7999 83.1826 14.8299 83.1426 14.8499 83.1126C15.2699 83.5626 15.8599 83.8526 16.5799 83.8526C17.5099 83.8526 18.2999 83.3226 18.7299 82.5726C19.2299 83.2426 19.7099 83.9126 20.1699 84.6126C20.4299 85.0026 20.7599 85.3126 21.1399 85.5226C21.1899 85.8526 21.2399 86.1826 21.2799 86.5126C21.4099 87.6226 21.9699 88.6126 23.1199 88.9226C24.1999 89.2226 25.3699 88.7226 25.9399 87.7726C26.0499 87.5926 26.1599 87.4126 26.2699 87.2226C26.3699 87.3226 26.4599 87.4226 26.5699 87.5026C27.1499 87.9326 27.7199 88.0726 28.2799 88.0326C28.2899 88.1826 28.2999 88.3426 28.3099 88.4926C28.4199 89.9726 29.8399 91.5026 31.4699 90.9026C31.6899 90.8226 31.8999 90.7226 32.0999 90.6226C32.9099 90.8126 33.7899 90.6326 34.4299 89.9926C35.3499 89.0726 35.4399 87.3626 34.4299 86.4526C34.2399 86.2826 34.0599 86.1126 33.8699 85.9426C35.1599 86.5726 36.5199 87.0026 38.0299 87.1326C38.7599 87.1926 39.3599 86.9026 39.7799 86.4426C41.0399 86.9526 42.0899 87.9126 42.5699 89.3226C42.8999 89.9826 43.0699 90.6926 43.0699 91.4026C43.2699 91.0726 43.5099 90.7626 43.7899 90.5026C44.1399 90.1726 44.4799 89.8626 44.7999 89.5026C45.0499 89.1226 45.2799 88.7326 45.4599 88.3026C45.3799 88.5026 45.2899 88.7026 45.2099 88.9026C45.7299 87.6726 46.2399 86.5026 47.3699 85.7526C47.8999 84.1026 50.2799 83.3526 51.4999 84.7526C52.3499 85.7226 52.8299 87.1026 52.3599 88.3726C52.1599 88.9026 51.8899 89.3126 51.4899 89.6526C51.3799 90.0726 51.2699 90.4826 51.1599 90.9026C52.3699 88.0526 55.4699 86.6726 58.0499 87.3026C58.8099 86.7626 59.6799 86.4126 60.6299 86.4426C60.5399 86.1926 60.4899 85.9326 60.4699 85.6726C60.1799 85.0726 60.1599 84.3726 60.5699 83.6926C60.7999 86.0826 61.2499 88.3926 62.0399 90.6526C62.8399 92.9426 66.1199 93.1026 66.8599 90.6526C67.2199 89.4526 67.5399 88.2426 67.8199 87.0226C68.3699 87.2726 69.0499 87.3126 69.6199 87.1626C69.7599 87.2926 70.0199 87.4726 70.0999 87.5326C70.5799 87.9726 71.0499 88.4226 71.5099 88.8926C71.9399 89.3326 72.3699 89.7826 72.7799 90.2426C73.2999 90.8926 73.8199 91.5426 74.3599 92.1726C76.1699 94.3126 80.0299 91.4026 78.2899 89.1426C78.1599 88.9726 78.0199 88.8126 77.8899 88.6426C77.7199 88.4426 77.5599 88.2326 77.3999 88.0326C77.3199 87.9326 77.2399 87.8326 77.1599 87.7326C76.9099 87.4226 76.6599 87.1226 76.4099 86.8126C76.8499 86.7026 77.2499 86.4726 77.5799 86.1426C78.0199 86.3326 78.4599 86.5226 78.8999 86.7426C81.2699 87.9526 83.2899 85.5826 82.3199 83.3226C82.1499 82.9126 81.9699 82.5126 81.7999 82.1026C82.2799 82.0426 82.6899 81.9126 83.1399 81.7026C83.1999 81.6726 83.2499 81.6426 83.3099 81.6126C83.7598 81.8126 85.8599 82.1526 85.9999 82.1726C86.9799 82.2626 87.9299 82.1426 88.8899 81.9826C89.9299 81.8026 90.5999 80.7726 90.6999 79.7526C90.7299 79.4626 90.7099 79.1726 90.6399 78.9026C90.4199 78.0926 89.8699 77.5726 89.1999 77.3126C88.9698 77.2226 88.7199 77.1626 88.4599 77.1326C88.6299 76.6826 88.6699 76.1626 88.5799 75.6826C88.5299 75.4026 88.4299 75.1426 88.2999 74.9126C88.0699 74.5226 87.7599 74.2326 87.4099 74.0326C87.6899 72.7826 88.4999 71.8526 89.6399 71.5326C90.1299 71.3926 90.5799 71.2826 91.0099 71.1726C92.5299 70.7926 93.4499 70.5626 94.5999 69.4226C95.0199 69.0026 95.2099 68.5226 95.1999 67.9226C95.1099 64.6226 89.5199 59.6226 87.4099 57.7426L87.0499 57.4126C86.1699 56.6226 85.7099 55.6026 85.7199 54.4726C85.7299 51.4926 88.8499 48.5026 92.3099 45.4426C92.8699 44.9426 93.3499 44.5226 93.6699 44.2026C96.5599 41.3126 96.2999 34.7526 96.1199 29.9626C96.0799 28.8026 96.0299 27.7126 96.0299 26.7526C96.0299 17.9626 94.8099 13.8526 93.6699 12.9326C93.5098 12.8026 93.3899 12.7726 93.1899 12.8226C91.8399 13.1226 90.6599 14.6126 89.4199 16.2026C88.2699 17.6726 87.0699 19.1926 85.4799 20.1026C84.7099 20.5426 83.9699 20.9326 83.2599 21.2926C81.5699 22.1726 80.1099 22.9326 78.6099 24.2726C77.5499 25.2226 76.5199 26.2926 75.5299 27.3226C74.7299 28.1626 73.8999 29.0326 73.0299 29.8426C72.2299 30.6026 71.4899 31.7026 70.6999 32.8626C69.4299 34.7526 68.1199 36.7026 66.1799 37.7726C64.9099 38.4826 59.0899 36.7126 59.0299 36.7026C56.4899 35.7926 53.3599 36.5626 50.3399 37.3126C48.2599 37.8226 46.1199 38.3526 44.1099 38.3526C40.8799 38.3526 40.3799 34.6826 40.1099 32.7026C40.0599 32.3726 40.0199 32.0626 39.9699 31.7926C39.4699 29.0226 38.1899 25.9426 36.9499 22.9626C36.3799 21.5826 35.8399 20.2826 35.3599 18.9926C33.1499 12.9926 25.7899 4.09256 20.1599 4.09256C19.8699 4.09256 19.5799 4.09256 19.2699 4.09256C16.3199 4.05256 13.9999 4.15256 13.1999 5.76256C11.6799 8.79256 10.3699 11.5326 9.59986 14.2826C8.37986 18.6826 9.36986 26.0926 12.3799 35.1326C13.2599 37.7626 14.8199 40.8326 16.5499 43.3326C17.1199 44.1526 17.6399 44.6726 18.0899 45.1326C19.3399 46.3826 20.0899 47.3426 19.9299 50.0326C19.8899 50.7426 19.3499 51.3126 18.6699 51.4126C18.5899 53.9626 17.1899 55.5826 15.9499 57.0126C15.4799 57.5626 15.0299 58.0726 14.6599 58.6226C14.1399 59.4026 13.5899 60.1926 13.0499 60.9826C11.8499 62.7126 10.6099 64.4926 9.63986 66.2326C9.25986 66.9226 8.81986 67.6226 8.38986 68.2926C7.73986 69.3226 6.52986 71.2326 6.62986 71.8026C6.64986 71.7726 7.08986 72.1026 8.80986 72.1026C8.86986 72.1026 8.92986 72.1026 8.98986 72.1026C8.81986 72.6026 8.78986 73.1326 8.90986 73.5926C8.98986 73.8826 9.11986 74.1326 9.26986 74.3526C9.24986 74.4626 9.22986 74.5826 9.22986 74.7026C9.19986 75.8226 9.25986 76.9426 9.36986 78.0626C9.51986 79.5926 9.77986 81.1226 10.1799 82.6126H10.2099ZM39.9599 50.5326C40.2599 50.5326 40.5499 50.5426 40.8199 50.6026C40.8899 50.6226 40.2899 51.1826 40.2799 51.1926C39.5499 51.9026 38.7199 52.4626 37.8799 53.0426L37.8299 53.0826C35.8399 54.4526 33.6699 56.6026 31.0599 55.6426C31.0399 55.6426 31.0199 55.6326 30.9999 55.6226C30.1799 55.8226 27.5099 56.4026 29.0999 55.2126C29.7399 54.7326 30.4199 54.2926 31.1399 53.8826C31.1899 53.8326 31.2399 53.7726 31.2899 53.7226C30.5799 53.8926 29.8999 53.9126 30.4199 53.0926C31.3599 51.6226 33.7299 50.5426 35.2699 50.0026C36.2099 49.6726 37.2999 49.6326 38.3499 49.6726C38.7399 49.6826 39.1299 49.7126 39.4999 49.7326C40.1299 49.7726 40.1699 50.1326 39.9699 50.5526L39.9599 50.5326ZM14.2799 75.4226C14.5099 75.4626 14.7499 75.5126 14.9799 75.5726C14.7399 75.6526 14.5099 75.7626 14.2899 75.9126C14.2899 75.7426 14.2899 75.5826 14.2899 75.4126L14.2799 75.4226ZM36.2499 63.0626C36.1699 63.3526 35.5299 64.6226 35.0199 64.6826C34.7399 65.1226 34.3999 65.5226 34.0099 65.8726C33.4299 66.4026 32.5399 66.4626 32.3799 65.5126C32.1699 64.2026 32.7799 62.8226 33.6899 61.9026C33.8199 61.7726 33.9599 61.6626 34.1099 61.5826C34.2599 61.3526 34.4299 61.1426 34.6299 60.9726C35.1299 60.5326 35.6399 60.5526 35.8299 61.0526C35.9599 60.9526 36.1299 60.9326 36.3599 61.0726C36.4099 61.1026 36.4499 61.1326 36.4799 61.1626C36.7799 61.4526 36.6599 61.9526 36.3399 62.5126C36.3399 62.6826 36.3099 62.8626 36.2499 63.0726V63.0626ZM49.4299 79.3726C48.4999 78.0326 47.8299 76.5726 47.2599 75.0326C46.9899 74.2926 46.5799 73.0426 46.1499 72.4926C45.8999 72.1726 49.6099 71.2126 50.0399 71.2126C51.6399 71.2126 53.7099 71.4026 54.9699 72.5426C55.0999 72.6526 55.3099 72.8026 55.5099 72.9726C58.2899 73.0126 56.5399 78.1726 55.0199 79.1426C53.2699 80.2726 51.0099 81.6526 49.4299 79.3626V79.3726ZM65.8599 51.9126C65.9899 51.1726 66.4899 51.2526 67.1899 51.6326C68.9999 51.3726 71.2199 51.5526 72.1599 53.2526C72.1599 53.2726 72.1799 53.2826 72.1899 53.3026C73.3499 53.9326 74.4799 54.8926 75.1199 55.8826C76.0299 57.2926 75.3299 58.5726 73.5399 58.5726C72.5799 58.5726 71.6599 57.8326 70.8299 57.0026C70.3499 56.8926 69.9999 56.8026 69.9599 56.7826C69.1299 56.4726 68.1399 56.0826 67.4799 55.4626C67.2799 55.2726 66.9699 54.7926 67.4799 54.8326C67.5699 54.8326 67.6599 54.8526 67.7499 54.8626C66.8099 54.4026 65.9399 53.8026 65.8399 52.7126C65.8399 52.7126 65.8399 52.7126 65.8299 52.7026C65.2099 52.2126 65.3899 52.0426 65.8599 51.9026V51.9126ZM63.6599 62.1726C63.7599 62.1326 63.8599 62.1126 63.9499 62.1126C64.4699 61.4326 65.2199 61.3926 65.4899 62.8726C65.6399 63.6726 65.8999 64.7826 65.8399 65.7426C65.8099 66.1326 65.7399 66.5026 65.5699 66.8126C65.3099 67.3226 65.0899 67.2426 64.9199 66.9426C64.9199 66.9626 64.9099 66.9726 64.8999 66.9826C64.0199 69.1126 63.5999 67.1126 63.4499 65.3626C63.1999 64.0726 63.0299 62.3826 63.6399 62.1626L63.6599 62.1726ZM77.9399 32.4726C78.2599 32.6026 78.5799 32.7426 78.9099 32.8926C78.9099 32.8926 78.9099 32.8826 78.9099 32.8726C79.1599 32.1526 79.4199 31.4326 79.6699 30.7226C80.0399 29.6726 80.9099 29.0726 81.8299 28.9726C82.3499 28.3926 82.9199 27.8626 83.4499 27.2826C83.6898 27.0326 83.8499 26.8426 84.0199 26.5826C84.0699 26.5026 84.2899 26.0526 84.2799 26.1726C84.2799 26.1726 84.2799 26.1726 84.2899 26.1726C84.3199 25.9526 84.3399 25.7326 84.3699 25.5026C84.5399 24.2526 86.0199 23.5826 87.1099 23.7126C88.1999 23.8426 89.4399 24.9526 89.2799 26.1726C89.2499 26.4026 89.2099 26.6226 89.1599 26.8326C89.1699 26.8326 89.1799 26.8326 89.1899 26.8326C88.7299 30.1726 88.8399 33.5626 88.2199 36.8826C88.1399 37.3126 88.0399 37.7426 87.9199 38.1526C88.1799 38.5426 88.4199 38.9426 88.6899 39.3226C89.3099 40.2026 89.0399 41.5726 88.3299 42.3126C88.3999 42.7926 88.3599 43.2826 88.1799 43.7226C87.7999 44.6526 86.9699 45.1526 86.0399 45.2226C86.0699 45.5926 86.1199 45.9626 86.1699 46.3526C86.2999 47.4226 85.2999 48.5026 84.3299 48.7626C83.2299 49.0626 82.1099 48.5526 81.5099 47.6126C80.9899 46.8026 79.7599 46.0926 78.9099 45.4526C78.1099 44.8526 77.3199 44.2426 76.5199 43.6426C76.4899 43.6326 76.4599 43.6126 76.4299 43.6026C75.7999 43.3526 75.2599 42.9426 74.9299 42.4026C74.0699 41.5826 73.6799 40.4026 74.3499 39.2626C74.6299 38.7926 75.1199 38.4126 75.6699 38.1926C75.7598 37.9126 75.8999 37.6526 76.0699 37.4226C75.6899 37.0526 75.3599 36.6326 75.0999 36.1526C74.6099 35.2426 74.6799 34.2026 75.2999 33.3726C75.8299 32.6526 77.0299 32.1126 77.9299 32.4726H77.9399ZM16.1899 22.3826C16.9799 20.2226 18.7299 18.2626 21.0999 17.8926C22.4399 17.6826 23.7799 18.2126 24.1799 19.6426C24.2199 19.7826 24.2399 19.9326 24.2499 20.0826C25.0699 20.2226 25.8499 20.6126 26.4399 21.2726C27.6499 22.6126 27.9199 24.5026 28.4099 26.1826C29.3299 29.3726 30.5199 32.4226 32.5599 35.0726C33.3299 36.0726 33.7899 37.1026 33.5099 38.3926C33.3099 39.3226 32.6699 40.0626 32.0399 40.7426C30.8099 42.0626 29.3499 43.1826 27.7899 44.0926C26.4999 44.8426 25.1899 44.2726 24.3699 43.1926C21.2999 39.1926 18.8299 34.8126 16.9399 30.1426C15.9699 27.7426 15.2699 24.9226 16.1999 22.3926L16.1899 22.3826Z" fill="#FAAF78"/>
<path d="M70.5199 172.963C70.4799 172.953 70.4499 172.933 70.4199 172.923C70.4299 172.923 70.4599 172.943 70.5199 172.963Z" fill="#FDF7F0"/>
<path d="M181.08 154.903C181.46 153.083 180.02 151.873 178.6 151.793C177.78 151.743 176.97 152.083 176.52 152.903C175.22 151.853 173.17 152.873 172.68 154.343C171.2 158.813 169.33 163.113 167.12 167.273C166.83 167.353 166.54 167.473 166.26 167.613C165.18 168.163 164.44 169.103 163.68 170.013C163.62 170.083 163.57 170.153 163.51 170.223C164.53 167.643 165.56 165.063 166.59 162.483C167.05 161.343 166.19 159.953 165.14 159.533C163.92 159.043 162.76 159.513 162.02 160.553C161.31 161.543 160.63 162.563 159.98 163.583C159.95 163.003 159.93 162.423 159.9 161.853C159.79 159.463 156.5 158.333 155.24 160.593C153.63 163.483 152.38 166.523 151.31 169.633C151.18 169.613 151.04 169.593 150.91 169.573C149.97 168.403 148.9 167.393 147.67 166.463C146.85 165.843 145.78 166.033 144.98 166.613C144.54 166.503 144.09 166.433 143.61 166.383C142.18 166.253 141.35 167.303 141.21 168.473C141.08 168.523 140.97 168.583 140.85 168.643C140.09 167.743 138.64 167.383 137.59 168.023C137.38 168.153 137.17 168.283 136.96 168.413C136.93 168.063 136.91 167.713 136.89 167.353C136.74 165.273 134.22 163.953 132.62 165.583C132.3 165.913 132 166.253 131.69 166.583C131.46 166.093 131.07 165.693 130.47 165.453C129.31 164.983 128.01 165.393 127.35 166.473C127.06 166.953 126.76 167.433 126.47 167.923C125.32 168.123 124.18 168.333 123.03 168.513C120.85 166.933 118.63 165.403 116.35 163.953C115.95 163.703 115.56 163.593 115.18 163.573C111.61 159.773 107.27 157.943 102.12 157.313C100.04 157.063 98.59 158.233 97.85 159.833C94.83 158.863 91.79 158.073 88.66 157.453C87.61 157.243 86.52 157.423 85.53 157.843C83.45 157.223 81.36 156.943 79.34 157.293C76.43 154.823 73.56 152.313 70.76 149.723C68.99 148.083 65.6 145.683 63.47 143.193C62.98 142.613 62.57 142.033 62.24 141.453C62.26 141.403 62.28 141.353 62.3 141.293C62.73 140.003 63.22 138.993 63.8 138.053C63.96 138.433 64.14 138.813 64.34 139.193C65.77 141.843 70.14 142.653 72.19 140.203C74.4 137.573 75.74 134.203 76.45 130.673C80.05 134.053 86.49 130.403 84.93 125.943C84.91 125.883 84.89 125.833 84.87 125.773C85.09 125.243 85.27 124.673 85.42 124.083C85.46 124.063 85.51 124.053 85.55 124.043C87.27 123.333 87.69 121.083 86.82 119.613C87.73 118.933 88.47 118.023 88.76 116.903C89.09 115.593 89.28 114.183 89.13 112.823C89.16 112.133 89.01 111.493 88.7 110.893C88.5 110.273 88.15 109.733 87.67 109.283C87.27 108.883 86.74 108.523 86.17 108.263C85.91 103.723 85.27 99.1725 84.19 94.8225C86.82 96.4825 90.79 95.3625 91.83 92.6025C91.89 92.4325 91.95 92.2725 91.99 92.0925C92.59 91.6325 93.13 91.0625 93.53 90.3325C94.04 89.4025 94.39 88.3325 94.62 87.2925C94.62 87.2625 94.64 87.2225 94.64 87.1925C94.81 86.4025 94.88 85.5725 94.6 84.7925C94.34 84.0525 93.87 83.4925 93.37 82.9025C92.48 81.8625 91.58 80.8125 90.69 79.7725C90.6 80.7925 89.92 81.8225 88.88 82.0025C87.91 82.1625 86.96 82.2825 85.99 82.1925C85.85 82.1825 83.75 81.8425 83.3 81.6325C83.24 81.6625 83.19 81.6925 83.13 81.7225C82.67 81.9425 82.26 82.0625 81.79 82.1225C81.96 82.5325 82.14 82.9325 82.31 83.3425C83.28 85.6025 81.26 87.9725 78.89 86.7625C78.46 86.5425 78.02 86.3425 77.57 86.1625C77.24 86.4825 76.84 86.7225 76.4 86.8325C76.65 87.1425 76.9 87.4425 77.15 87.7525C77.23 87.8525 77.31 87.9525 77.39 88.0525C77.56 88.2525 77.72 88.4625 77.88 88.6625C78.01 88.8325 78.15 88.9925 78.28 89.1625C80.02 91.4225 76.16 94.3325 74.35 92.1925C73.81 91.5525 73.29 90.9125 72.77 90.2625C72.36 89.8025 71.93 89.3525 71.5 88.9125C71.04 88.4425 70.57 87.9925 70.09 87.5525C70.02 87.4925 69.75 87.3125 69.61 87.1825C69.04 87.3425 68.35 87.3025 67.81 87.0425C67.52 88.2625 67.21 89.4725 66.85 90.6725C66.11 93.1225 62.83 92.9625 62.03 90.6725C61.24 88.4125 60.79 86.0925 60.56 83.7125C60.15 84.4025 60.17 85.0925 60.46 85.6925C60.48 85.9525 60.53 86.2125 60.62 86.4625C59.66 86.4325 58.79 86.7825 58.04 87.3225C55.46 86.6925 52.37 88.0725 51.15 90.9225C51.12 91.0325 51.09 91.1525 51.06 91.2725C50.85 92.0725 50.63 92.8625 50.24 93.6025C49.82 94.4025 49.12 95.0925 48.35 95.5525C47.61 96.0025 46.65 96.3025 45.78 96.2625C45.56 96.2525 45.35 96.2225 45.14 96.1725C45.05 96.2925 44.96 96.4025 44.88 96.5225C44.67 96.4425 44.47 96.3525 44.29 96.2525C43.53 95.8025 43.15 95.2625 42.96 94.6425C42.84 94.4325 42.73 94.2025 42.66 93.9525C42.42 93.0725 42.62 92.1825 43.07 91.4325C43.07 90.7125 42.9 90.0025 42.57 89.3525C42.09 87.9425 41.04 86.9825 39.78 86.4725C39.35 86.9325 38.76 87.2225 38.03 87.1625C36.52 87.0325 35.16 86.6025 33.87 85.9725C34.06 86.1425 34.24 86.3125 34.43 86.4825C35.44 87.3925 35.35 89.1025 34.43 90.0225C33.79 90.6625 32.91 90.8525 32.1 90.6525C31.9 90.7625 31.69 90.8525 31.47 90.9325C29.84 91.5325 28.41 90.0025 28.31 88.5225C28.3 88.3725 28.29 88.2125 28.28 88.0625C27.73 88.1025 27.16 87.9625 26.57 87.5325C26.46 87.4525 26.37 87.3425 26.27 87.2525C26.16 87.4325 26.05 87.6125 25.94 87.8025C25.37 88.7525 24.19 89.2425 23.12 88.9525C21.97 88.6325 21.41 87.6525 21.28 86.5425C21.24 86.2125 21.19 85.8825 21.14 85.5525C20.76 85.3425 20.42 85.0225 20.17 84.6425C19.71 83.9425 19.23 83.2725 18.73 82.6025C18.3 83.3625 17.51 83.8825 16.58 83.8825C15.86 83.8825 15.27 83.5925 14.85 83.1425C14.83 83.1725 14.8 83.2125 14.78 83.2425C14.15 84.0825 13.36 84.5625 12.29 84.4325C11.33 84.3225 10.46 83.5925 10.21 82.6425C9.81999 81.1525 9.54999 79.6325 9.39999 78.0925C7.77999 80.1325 6.64999 82.5125 6.07999 85.0925C6.01999 85.3525 5.95999 85.6025 5.91999 85.8625C5.84999 85.8625 5.77999 85.8625 5.71999 85.8825C2.49999 86.3825 2.54999 91.4625 5.88999 91.8025C6.09999 91.9525 6.33999 92.0725 6.61999 92.1625C8.46999 92.7725 10.31 93.3925 12.16 94.0025C12.29 94.0425 12.42 94.0725 12.56 94.1125C12.43 96.4725 11.96 98.6625 10.97 100.933C10.39 102.253 10.77 103.513 11.55 104.383C11.55 104.383 11.57 104.403 11.58 104.403C11.57 104.483 11.55 104.553 11.54 104.633C10.91 107.843 10.24 111.053 10.09 114.243C10.09 114.463 10.09 114.673 10.08 114.883C10.05 115.933 10.05 116.983 10.09 118.013C10.12 118.883 10.18 119.753 10.27 120.613C10.19 120.613 10.12 120.603 10.04 120.603C7.33999 120.603 5.77999 122.363 5.33999 124.403C4.20999 124.813 3.35999 125.903 3.83999 127.313C4.32999 128.773 4.69999 130.663 5.78999 131.813C4.33999 132.243 3.13999 133.983 4.12999 135.523C4.36999 135.903 4.62999 136.273 4.87999 136.643C4.63999 137.223 4.51999 137.853 4.55999 138.533C4.86999 143.693 4.76999 148.953 5.40999 154.083C5.87999 157.803 6.87999 161.453 7.78999 165.083C6.41999 166.043 5.93999 168.263 7.84999 169.223C8.21999 169.413 8.58999 169.583 8.96999 169.763C9.70999 172.653 10.46 175.553 10.97 178.473C11.88 183.743 9.53999 187.743 9.33999 192.863C9.31999 193.263 9.33999 193.633 9.39999 193.973C8.73999 195.223 7.99999 196.433 7.14999 197.623C4.02999 201.993 1.11999 206.363 3.27999 211.903C4.21999 214.323 7.20999 216.593 9.87999 215.333C12.65 215.213 15.41 214.943 18.15 214.503C19.77 214.243 20.98 213.393 21.32 211.693C21.47 210.953 21.56 210.183 21.63 209.423C22.35 208.413 22.96 207.183 23.42 205.673C24.54 202.003 23.72 198.123 24.69 194.453C25.67 190.753 27.71 187.623 28.25 183.763C28.42 182.563 28.2 181.493 27.74 180.583C27.85 180.313 27.96 180.043 28.08 179.773C28.36 179.143 28.51 178.523 28.57 177.933C31.86 176.473 35.14 175.023 38.43 173.563C39.23 173.213 39.62 172.333 39.64 171.473C39.79 171.613 39.94 171.743 40.09 171.883C41.94 175.773 43.98 179.553 46.31 183.183C46.97 184.203 48.04 185.413 48.87 186.653C49.27 187.873 49.7 189.083 50.14 190.293C50.24 192.073 49.96 194.123 50.14 195.753C50.39 197.913 50.99 199.883 51.5 201.983C52.18 204.783 51.65 207.233 51.32 210.023C51.12 211.743 51.22 213.183 51.59 214.463C51.44 215.903 51.28 217.333 51.09 218.763C50.77 221.233 54.27 221.933 55.58 220.253C55.64 220.303 55.68 220.363 55.74 220.413C56.01 220.663 56.32 220.883 56.65 221.073C57.39 222.333 59.17 222.903 60.38 221.793C61.31 221.633 62.18 221.203 62.81 220.413C62.96 220.223 63.11 220.043 63.26 219.853C63.95 219.003 64.3 218.093 64.41 217.183C64.8 216.603 65.1 215.983 65.28 215.313C65.31 215.193 65.33 215.063 65.36 214.933C65.52 214.533 65.66 214.133 65.8 213.733C65.85 213.703 65.9 213.663 65.95 213.623C66.77 213.043 67.42 212.143 67.73 210.873C68.77 206.673 68.26 202.893 67.56 198.693C67.13 196.153 67.1 193.913 67.36 191.723C67.55 191.033 67.69 190.333 67.69 189.653C68.06 187.883 68.61 186.083 69.33 184.133C69.38 184.003 69.41 183.873 69.45 183.743C70.48 184.763 71.93 184.593 72.97 183.743C73.15 183.593 73.33 183.433 73.5 183.273C73.9 184.103 74.72 184.693 75.72 184.703C77.26 184.723 78.75 184.463 80.16 184.023C80.33 184.003 80.5 183.983 80.66 183.933C80.97 183.843 81.24 183.693 81.5 183.523C81.62 183.473 81.74 183.423 81.86 183.363C84.17 184.283 86.57 183.463 89.19 183.563C90.01 183.593 90.84 183.663 91.69 183.753C92.48 184.873 94.16 185.293 95.37 184.183C97.24 184.413 99.13 184.603 100.98 184.603C101.88 185.983 104.15 186.493 105.25 184.633C105.31 184.523 105.38 184.423 105.44 184.323C108.57 185.243 112.57 184.763 116.42 183.783C116.07 184.303 115.73 184.793 115.4 185.273C115.28 185.453 115.16 185.623 115.04 185.803C114.29 186.983 113.74 188.243 113.77 190.083C113.82 193.143 115.51 195.763 116.63 198.513C118.14 202.213 118.95 205.213 118.62 209.063C118.5 210.503 118.44 211.883 118.73 213.313C119.01 214.363 119.35 215.393 119.75 216.403C119.35 215.403 119.02 215.533 118.75 216.813C116.41 221.303 121.1 225.993 125.59 223.653C128.9 221.933 131.52 220.573 132.59 216.803C133.65 213.093 133.48 208.923 133.24 205.123C133.04 202.033 132.2 198.763 132.23 195.723C132.24 194.153 132.85 192.533 132.86 190.923C132.88 188.713 132.46 186.473 132.12 184.293C132.05 183.843 131.91 183.463 131.75 183.103C132.78 180.843 132.1 178.693 130.73 177.253C132.08 177.013 133.43 176.763 134.78 176.503C134.94 176.473 135.09 176.433 135.24 176.393C135.15 177.553 135.92 178.703 137.06 179.023C138.46 179.403 139.66 178.543 140.14 177.273C140.27 176.943 140.4 176.613 140.55 176.293C141.02 177.393 141.62 178.393 142.48 179.063C142.24 179.693 142.23 180.453 142.58 181.203C143.56 183.323 144.58 185.413 145.63 187.493C145.77 189.763 146.11 192.013 146.71 194.213C147.7 197.813 149.47 201.013 149.44 204.823C149.44 205.393 149.55 205.913 149.72 206.393C148.34 208.543 146.77 210.503 145.34 212.093C142.58 215.143 144.33 220.803 148.88 220.633C155.05 220.403 164.77 221.793 167.96 214.923C169.52 211.563 169.08 207.333 169.2 203.733C169.25 202.293 169.3 200.863 169.34 199.423C169.5 198.913 169.6 198.353 169.58 197.723C169.5 195.123 169.53 192.543 169.65 189.943C169.7 188.573 169.28 187.493 168.6 186.713C169.18 185.353 169.98 184.043 170.68 182.893C171.73 181.193 171.56 179.383 170.68 177.963C172.01 175.863 173.23 173.703 174.32 171.463C174.41 171.283 174.48 171.103 174.56 170.933C174.77 170.763 174.94 170.563 175.08 170.323C175.89 168.843 176.64 167.333 177.33 165.803C177.45 165.663 177.56 165.513 177.68 165.373C179.05 163.563 180.17 161.563 180.99 159.413C181.27 158.693 181.04 157.893 180.58 157.283C180.75 156.483 180.91 155.683 181.08 154.883V154.903ZM70.48 172.933C70.48 172.933 70.5 172.953 70.51 172.963C70.51 172.963 70.52 172.963 70.53 172.963C70.53 172.963 70.53 172.963 70.51 172.963C70.57 173.013 70.65 173.073 70.69 173.103C70.69 173.103 70.69 173.103 70.7 173.113C70.7 173.123 70.71 173.133 70.72 173.163C70.73 173.183 70.81 173.323 70.85 173.403C70.86 173.523 70.98 173.993 70.98 173.963C71.01 174.323 70.98 174.773 70.94 175.013C70.89 175.383 70.82 175.743 70.75 176.113C70.54 175.403 70.01 174.793 69.33 174.513C69.47 173.933 69.59 173.353 69.72 172.783C69.8 172.763 69.88 172.743 69.97 172.723C70.1 172.803 70.25 172.863 70.4 172.923C70.38 172.913 70.41 172.923 70.47 172.943L70.48 172.933ZM54.39 161.283C54.39 161.283 54.46 161.313 54.5 161.323C55.89 162.783 57.36 164.173 58.91 165.483C57.33 164.163 55.83 162.763 54.4 161.283H54.39ZM60.68 166.943C60.68 166.943 60.64 166.893 60.61 166.873C60.63 166.893 60.66 166.913 60.68 166.933V166.943ZM52.64 170.023C52.64 170.023 52.61 170.053 52.59 170.063C52.51 169.983 52.43 169.903 52.36 169.833C52.45 169.893 52.55 169.963 52.65 170.023H52.64ZM13.45 133.033C13.3 133.073 13.16 133.123 13.02 133.183C12.92 133.013 12.81 132.833 12.71 132.663C12.91 132.653 13.11 132.643 13.32 132.633C13.36 132.773 13.4 132.913 13.46 133.043L13.45 133.033ZM70.22 179.043C70.2 179.203 70.19 179.373 70.18 179.533C70.11 179.593 70.03 179.663 69.96 179.723C70.05 179.493 70.14 179.273 70.22 179.043Z" fill="#FDF7F0"/>
<path d="M18.4598 49.9526C18.6698 46.6526 17.2998 47.0226 15.3498 44.2126C13.6298 41.7226 11.9498 38.5026 10.9898 35.6326C9.00976 29.6926 6.45976 20.1226 8.18976 13.9026C9.01976 10.9026 10.5098 7.89257 11.8898 5.11257C13.3198 2.25257 17.3698 2.62257 20.1898 2.62257C26.9498 2.62257 34.6298 12.6226 36.7998 18.5026C38.3198 22.6126 40.6998 27.3226 41.4698 31.5426C41.7998 33.3726 41.8498 36.8726 44.1298 36.8726C48.8598 36.8726 54.7198 33.5926 59.5598 35.3126C60.2598 35.5626 65.0998 36.7026 65.4798 36.4926C68.2098 34.9726 69.7698 30.9126 72.0198 28.7826C73.9198 26.9826 75.6398 24.9526 77.6198 23.1826C79.9198 21.1326 82.0898 20.3426 84.7498 18.8226C87.8098 17.0726 89.5398 12.1226 92.8798 11.3826C97.5398 10.3526 97.5498 24.2126 97.5498 26.7726C97.5498 32.0226 98.8298 41.2026 94.7498 45.2826C92.6998 47.3326 84.6498 53.2326 88.0698 56.3226C90.7698 58.7526 99.7398 66.4526 95.6798 70.5026C93.8798 72.3026 92.4198 72.3226 90.0798 72.9926C88.1598 73.5426 88.6498 76.9626 90.0798 77.8326C93.0098 79.6226 93.6498 81.9826 95.4098 84.6826C97.1498 87.3426 95.5398 90.0726 94.1298 92.6026C93.1198 94.4126 90.8498 94.1426 89.1498 95.0926C88.2998 95.5626 87.2898 95.4026 86.3498 95.4026C85.8898 95.4026 82.9198 93.5626 82.0098 93.1026" stroke="#010101" stroke-width="3" stroke-linecap="round"/>
<path d="M17.2197 51.2026C17.2197 54.2026 14.8897 55.6526 13.4497 57.8126C11.7697 60.3326 9.8097 62.9226 8.3597 65.5226C6.2697 69.2926 2.1097 73.6226 8.8397 73.6226C11.2697 73.6226 13.3097 71.3626 11.8797 72.7926C9.4197 75.2526 7.7097 78.7226 6.1397 81.7226C4.5197 84.8026 2.1997 88.3726 4.2697 91.6826C5.2997 93.3326 8.6397 93.7626 10.3597 93.5126C13.6897 93.0326 12.4597 91.8726 11.3297 95.3426C10.0997 99.1226 10.2597 103.293 9.7697 107.213C9.3997 110.143 8.4897 113.323 8.4897 116.243C8.4897 124.413 12.9997 136.863 20.9397 140.393C24.2497 141.863 24.1297 138.353 25.6097 136.203C25.7697 135.973 26.8997 133.373 27.1297 134.403C27.6797 136.893 27.5797 139.313 28.4097 141.843C29.2597 144.433 29.5297 148.173 32.4597 149.243C34.6397 150.043 37.0797 150.763 39.1397 149.313C41.8397 147.413 45.0997 142.553 45.8197 139.313C46.1597 137.803 45.8197 140.303 45.8897 140.873C46.1397 143.133 47.9797 145.043 49.4497 146.613C50.8297 148.083 52.2997 151.843 54.5697 152.083C55.5297 152.183 57.7097 148.773 58.2697 148.103C60.4897 145.463 63.1797 141.993 63.2897 138.383C63.3997 134.523 65.1997 139.943 67.6497 140.213C69.2197 140.383 70.6897 140.593 72.2497 140.833C73.6697 141.053 73.5497 138.753 73.8797 137.753C74.7497 135.093 76.3697 131.553 76.3697 128.723C76.3697 127.963 81.0797 133.583 83.0797 131.733C87.3597 127.783 88.8497 118.153 88.0597 112.843C87.0097 105.783 83.8997 99.6626 81.9697 92.9126" stroke="#010101" stroke-width="3" stroke-linecap="round"/>
<path d="M55.1898 72.9826C58.4198 72.6226 56.5998 78.1226 55.0198 79.1426C53.2698 80.2726 51.0098 81.6526 49.4298 79.3626C48.4998 78.0226 47.8298 76.5626 47.2598 75.0226C46.9898 74.2826 46.5798 73.0326 46.1498 72.4826C45.8998 72.1626 49.6098 71.2026 50.0398 71.2026C51.6398 71.2026 53.7098 71.3926 54.9698 72.5326C55.2498 72.7826 55.9498 73.2126 56.0298 73.5626C56.1798 74.2626 56.2798 75.8126 55.9798 76.4726C55.4698 77.6026 53.8798 77.1826 53.2498 76.4726C52.4698 75.5926 52.2198 71.9626 52.8098 72.9726C53.0898 73.4626 54.2098 78.0926 53.4298 78.2726C52.9098 78.3826 52.3598 74.1526 52.5898 73.5726C52.8198 73.0026 53.5098 74.5326 53.5098 74.5626C53.7998 75.7926 53.9698 77.4126 53.6498 78.6526C53.2098 80.3326 52.4098 75.7926 52.3698 75.4026C52.3698 75.3126 52.4898 74.1026 52.5298 74.5726C52.6098 75.5426 52.6598 76.8526 52.2698 77.7626C51.6598 79.1726 50.4598 75.0226 50.3698 74.5126C50.0398 72.6626 50.5398 76.2626 50.5398 76.7526C50.5398 77.5426 50.4698 78.6626 49.9898 77.2126C49.6398 76.1726 49.5398 75.1226 49.3898 74.0426C49.2298 72.9326 48.5598 73.0126 49.3198 72.4926C50.6598 71.5626 52.7798 72.4026 53.6098 73.6526C54.1498 74.4726 54.2498 76.1026 53.8798 74.0926" stroke="#010101" stroke-width="3" stroke-linecap="round"/>
<path d="M49.8696 82.0726C49.8696 81.4926 50.8696 83.4926 51.1996 83.8626C52.2796 85.0626 53.3896 85.7526 54.7996 86.5626C56.2096 87.3726 57.5596 86.7726 58.9396 86.2026C60.4396 85.5926 60.9296 84.5026 61.3996 82.9626" stroke="#010101" stroke-width="3" stroke-linecap="round"/>
<path d="M50.5297 80.7426C50.4897 81.1226 49.9997 81.3826 49.7697 81.6826C49.2597 82.3326 48.9497 83.1126 48.4197 83.7426C47.3997 84.9526 46.6797 87.2826 45.2197 88.0126C44.5297 88.3626 42.6797 88.0326 42.0997 87.6026C41.3297 87.0226 40.5397 86.5026 39.7397 85.9726C39.0497 85.5226 39.3697 85.1926 39.6797 84.5026" stroke="#010101" stroke-width="3" stroke-linecap="round"/>
<path d="M53.1897 87.8426C52.7297 87.9026 52.4197 89.9126 52.2997 90.3326C51.8097 92.0326 51.4797 93.3226 50.1897 94.6026C49.3197 95.4726 48.9197 96.1026 47.7497 96.5826C47.0397 96.8726 45.7297 96.7926 44.9797 96.6526C43.5597 96.4026 41.6797 94.7026 41.6797 93.1426C41.6797 91.8526 42.9997 90.9226 43.6497 89.9526C44.1497 89.2026 44.0597 87.3526 44.9797 88.5026" stroke="#010101" stroke-width="3" stroke-linecap="round"/>
<path d="M69.3799 53.0326C68.6599 52.2226 70.7499 52.7126 71.0599 52.8126C72.5699 53.3026 74.2799 54.5726 75.1199 55.8926C76.0299 57.3026 75.3299 58.5726 73.5399 58.5726C71.8599 58.5726 70.2799 56.2826 69.1099 55.2426C68.0699 54.3226 66.9199 53.5526 65.8299 52.7026C65.0499 52.0926 65.5299 51.9626 66.2899 51.7926C68.1999 51.3526 71.0599 51.2526 72.1699 53.2426C72.7999 54.3826 73.2299 55.9126 73.5499 57.1826C73.6899 57.7426 69.3599 55.6126 69.0799 55.4726C67.8199 54.8526 65.9699 54.3126 65.8499 52.6926C65.6899 50.5026 66.8799 51.4126 68.3999 52.3626C70.1299 53.4426 72.7899 55.2726 73.7199 57.1426C74.0699 57.8326 70.1099 56.8426 69.9599 56.7826C69.1299 56.4726 68.1399 56.0826 67.4799 55.4626C67.2799 55.2726 66.9699 54.7926 67.4799 54.8326C68.6299 54.9226 69.7399 55.4826 70.7299 56.0226C72.3099 56.8926 71.1599 55.5526 70.7099 54.7926" stroke="#010101" stroke-width="3" stroke-linecap="round"/>
<path d="M38.1198 49.2626C38.8298 49.3526 37.7798 50.6126 37.6298 50.7626C36.2798 52.1126 34.0598 52.7026 32.3298 53.3726C31.7998 53.5726 29.5798 54.3826 30.4098 53.0726C31.3498 51.6026 33.7198 50.5226 35.2598 49.9826C36.5598 49.5326 38.1298 49.6226 39.4798 49.7126C40.8898 49.8026 39.3398 51.4826 38.8498 51.8426C36.4898 53.6126 33.9498 54.8526 31.0898 55.5826C30.4398 55.7526 27.4198 56.4526 29.0798 55.2026C31.0998 53.6826 33.6298 52.5026 35.9898 51.6026C37.3198 51.1026 39.3398 50.2626 40.8098 50.5926C40.8798 50.6126 40.2798 51.1726 40.2698 51.1826C39.5198 51.9026 38.6698 52.4826 37.8198 53.0626C35.8298 54.4326 33.6598 56.5826 31.0498 55.6226C29.1898 54.9326 32.6998 52.4726 33.2198 52.0526C34.2898 51.1826 35.6298 50.6426 36.9598 50.2626C38.6698 49.7826 36.2398 51.8226 35.9098 52.0726C34.5798 53.1126 32.9098 53.5126 31.4598 54.3426" stroke="#010101" stroke-width="3" stroke-linecap="round"/>
<path d="M35.4596 62.3426C35.4596 61.9426 35.5496 60.5926 36.3496 61.0626C37.7696 61.8926 33.6596 65.6526 33.5196 65.0826C33.1996 63.7526 33.5796 61.9026 34.6296 60.9726C35.2296 60.4426 35.8496 60.5726 35.8996 61.4126C35.9996 63.1026 35.2696 64.7426 34.0196 65.8726C33.4396 66.4026 32.5496 66.4626 32.3896 65.5126C32.1796 64.2026 32.7896 62.8226 33.6996 61.9026C34.7496 60.8326 36.7896 61.2426 36.2596 63.0626C36.1596 63.3926 35.3396 65.0326 34.8096 64.6126C33.8696 63.8726 34.8096 62.3526 35.4296 61.7826C35.8396 61.4026 36.4996 60.6426 36.6896 61.5526C37.1396 63.7226 36.2396 66.0526 35.6996 68.1126" stroke="#010101" stroke-width="3" stroke-linecap="round"/>
<path d="M65.1597 63.6726C65.1597 61.4226 65.3697 63.3426 65.3797 64.4326C65.3797 65.0826 64.7497 69.1126 63.8297 66.7926C63.5997 66.2226 62.7197 62.5026 63.6597 62.1626C65.4597 61.5126 65.2697 66.1126 64.9197 66.9826C63.6597 70.0526 63.3397 64.5726 63.4197 63.5826C63.5497 61.9126 65.0697 60.5925 65.4997 62.8725C65.7097 63.9925 66.1497 65.7325 65.5897 66.8125C64.9297 68.0925 64.5597 65.6325 64.5197 65.3925C64.3597 64.4025 64.0197 62.8826 64.6197 61.9426C64.8297 61.6226 64.9597 62.1425 64.9997 62.2825C65.5297 64.0325 65.8697 65.8726 66.2797 67.6526" stroke="#010101" stroke-width="3" stroke-linecap="round"/>
<path d="M33.6796 37.7326C33.9096 38.0626 34.3196 38.4626 34.0896 37.7926C33.3396 35.6526 32.5196 33.4926 31.6996 31.3726C31.0096 29.5826 30.0796 27.9126 29.4196 26.1026C29.0396 25.0726 28.7596 23.9626 28.1396 23.0526C27.3696 21.9226 26.4596 20.9726 25.4896 20.0126C24.3596 18.8826 23.7096 18.6226 22.0996 18.4026C17.4296 17.7526 16.9496 26.2326 17.2196 29.2126C17.4696 31.8926 18.4596 34.7026 19.5196 37.1726C20.3996 39.2126 22.0296 40.9926 23.2496 42.8426C23.9996 43.9726 24.1596 45.1126 25.0196 43.7326" stroke="#010101" stroke-width="3" stroke-linecap="round"/>
<path d="M74.6995 39.2926C74.3795 39.8826 74.4795 39.2826 74.5795 38.9726C74.9095 37.9426 75.3295 36.9325 75.8095 35.9625C76.7595 34.0325 77.9395 32.5026 79.3095 30.8626C80.2595 29.7326 81.1595 28.5626 82.0195 27.3626C82.6695 26.4526 83.6795 25.8326 84.3395 24.8826C84.6795 24.3926 84.9995 23.9926 85.4895 23.6526C86.4895 22.9626 87.1795 22.2426 88.1295 21.4526C89.1195 20.6126 90.6195 20.2626 91.7895 19.5526" stroke="#010101" stroke-width="3" stroke-linecap="round"/>
<path d="M88.22 23.7726C89.22 26.0326 89.23 29.2726 89.32 31.7026C89.4 33.9526 89.21 36.2626 89.1 38.5126C89.03 39.9926 88.25 42.0626 87.56 43.4026C87.18 44.1426 86.49 44.7026 86.23 45.4926" stroke="#010101" stroke-width="3" stroke-linecap="round"/>
<path d="M56.7298 104.433C55.6998 105.343 53.0498 105.953 51.7398 106.463C50.2898 107.033 48.4798 106.753 46.9398 106.753C43.4898 106.753 40.3698 104.433 38.7598 101.533" stroke="#010101" stroke-width="3" stroke-linecap="round"/>
<path d="M7.50977 120.043C4.39977 120.043 4.84977 132.193 4.61977 134.273C3.95977 140.093 5.00977 145.903 5.00977 151.683C5.00977 162.113 10.0098 172.423 10.0098 182.853C10.0098 186.273 10.6598 190.443 9.28977 193.583C8.16977 196.143 6.39977 200.233 4.00977 201.733C2.11977 202.913 1.50977 207.133 1.50977 209.133C1.50977 212.703 3.10977 214.093 6.50977 215.413C12.4598 217.723 18.0698 215.933 21.7698 211.413C25.1798 207.243 25.5198 199.033 25.5198 193.893C25.5198 190.963 26.8098 188.103 27.0198 185.223C27.1798 183.033 28.0498 178.983 29.7698 177.603C31.5698 176.163 40.8198 169.773 42.0298 174.603" stroke="#010101" stroke-width="3" stroke-linecap="round"/>
<path d="M39.0396 169.083C39.0396 170.773 39.6596 171.783 40.6496 173.203C42.3496 175.613 43.6396 177.963 44.9296 180.603C46.8596 184.543 49.0195 188.373 50.5495 192.503C52.5595 197.943 52.0495 204.163 52.0495 209.883C52.0495 211.513 51.4396 212.893 51.0196 214.363C50.8296 215.043 50.0495 215.043 50.0495 215.893V218.643C50.0495 221.903 59.7595 221.573 62.2795 221.113C64.3495 220.733 64.9995 217.693 66.3095 216.383C67.7595 214.923 67.2995 212.193 68.3095 210.373C70.4795 206.463 67.1995 200.193 67.0595 196.223C66.8995 191.753 67.4695 187.883 69.3095 183.823C70.1095 182.063 70.0595 178.543 70.0595 176.593V168.083" stroke="#010101" stroke-width="3" stroke-linecap="round"/>
<path d="M68.5595 182.603C66.1595 182.453 71.7195 183.003 72.5595 183.073C75.7995 183.363 79.1895 184.533 82.3995 184.603C88.9295 184.753 95.4895 185.103 102.09 185.103C105.15 185.103 108.08 184.103 111.07 184.103C113.29 184.103 115.39 183.943 117.49 183.213C120.88 182.033 137.45 175.613 140.99 175.613" stroke="#010101" stroke-width="3" stroke-linecap="round"/>
<path d="M142.04 176.323C139.12 174.313 141.33 178.143 141.4 178.923C141.59 181.013 142.73 183.893 143.82 185.783C144.72 187.343 144.82 189.143 145.39 190.763C146.04 192.613 147.26 194.523 148.31 196.233C150.11 199.183 149.28 203.933 148.31 206.963C147.36 209.923 143.33 213.283 143.33 216.143C143.33 219.953 146.03 220.623 150.37 220.623C152.97 220.623 155.35 220.123 157.91 220.123C159.5 220.123 162.32 220.523 163.82 220.013C174.28 216.403 169.58 201.723 169.58 194.743V188.743C169.58 186.553 171.5 184.703 171.5 182.553C171.5 179.323 172.33 174.653 175.66 172.353C177.41 171.143 178.75 167.363 179.18 165.603C179.48 164.373 180.46 163.853 180.46 162.613C180.46 160.883 180.56 159.133 180.42 157.413C179.88 150.683 180.46 142.833 175.65 137.403C173.58 135.063 174.06 132.463 171.49 130.473C169.39 128.843 158 129.733 155.76 128.303C149.87 124.563 142.24 124.333 134.98 123.083C126.11 121.553 117.2 120.463 108.05 120.123C102.09 119.903 94.9297 118.623 88.9897 118.623" stroke="#010101" stroke-width="3" stroke-linecap="round"/>
<path d="M113.55 184.613C113.55 188.303 113.17 191.853 114.55 195.233C116.25 199.393 119.55 203.883 119.55 208.523C119.55 211.803 120.18 217.293 117.94 220.033C115.4 223.143 121.63 224.153 123.31 224.153C126.46 224.153 128.09 223.193 130.79 221.653C132.27 220.803 134.07 216.533 134.07 214.893C134.07 211.633 134.51 207.963 133.32 204.883C132.64 203.103 133.07 200.493 133.07 198.623C133.07 195.083 132.64 184.093 132 180.613" stroke="#010101" stroke-width="3" stroke-linecap="round"/>
</g>
<path d="M122.93 10.9507C122.93 10.8085 122.881 12.5883 122.742 13.0616C122.309 14.5425 121.446 15.8268 121.264 17.3909C121.004 19.6264 119.735 21.6511 119.561 23.9027C119.409 25.8591 118.488 28.8348 119.392 30.7365C120.105 32.2346 121.066 34.5925 122.93 35.1016C125.009 35.6694 127.658 35.3829 128.918 33.4199C130.617 30.7737 132.824 27.9609 133.373 24.8151C133.879 21.9127 135.057 19.075 135.057 16.1029C135.057 15.4194 135.394 14.8794 135.394 14.1708C135.394 12.431 135.373 12.7823 135.731 14.4928" stroke="black" stroke-width="3" stroke-linecap="round"/>
<path d="M145.837 15.7809C145.837 14.8869 145.858 15.0303 145.837 15.7809C145.8 17.0972 145.269 18.3815 144.995 19.663C144.244 23.1696 143.257 26.5282 142.805 30.0926C142.641 31.3867 142.39 32.6318 141.869 33.8136C141.293 35.1224 140.832 36.8237 141.457 34.1356" stroke="black" stroke-width="3" stroke-linecap="round"/>
<path d="M151.565 17.7129C152.026 17.65 149.526 16.4645 148.945 16.4248C147.693 16.3393 146.704 15.488 145.389 15.4588C144.663 15.4426 143.491 15.678 142.807 15.3872C142.324 15.1823 140.683 14.7496 141.796 15.4588" stroke="black" stroke-width="3" stroke-linecap="round"/>
<path d="M160.996 19.0009C160.996 14.624 160.996 27.7549 160.996 32.1318C160.996 33.6671 160.552 36.8252 161.595 38.0712C161.855 38.3817 161.788 39.268 161.595 37.9281C161.355 36.2695 161.083 34.6228 160.921 32.9548C160.605 29.7002 160.659 26.4522 160.659 23.1871C160.659 21.738 160.659 20.289 160.659 18.8399C160.659 16.5365 157.323 20.5781 156.897 21.0046C154.835 23.0692 152.75 25.2487 152.256 28.1604C151.969 29.8511 151.583 31.5128 151.208 33.1873C150.898 34.5701 150.113 35.8164 149.879 37.2125C149.794 37.7193 149.734 38.2834 149.411 38.7152C148.744 39.6073 150.377 36.7261 150.889 35.7455" stroke="black" stroke-width="3" stroke-linecap="round"/>
<path d="M160.659 31.2374C161.43 31.2834 161.298 31.5742 160.584 31.5594C158.673 31.5197 156.723 30.7577 154.839 30.4502C153.453 30.2241 152.031 30.0417 150.628 29.9672C149.303 29.8968 149.222 29.7434 150.216 28.9833" stroke="black" stroke-width="3" stroke-linecap="round"/>
<path d="M171.104 19.6445C171.104 18.2283 170.452 22.4108 170.243 23.8128C169.533 28.5633 168.557 33.3229 168.147 38.1065C167.896 41.0308 168.019 37.778 168.409 37.0332" stroke="black" stroke-width="3" stroke-linecap="round"/>
<path d="M169.42 28.6613C168.683 29.5662 174.413 31.2373 175.483 31.2373" stroke="black" stroke-width="3" stroke-linecap="round"/>
<path d="M177.841 19.9669C177.841 23.4987 177.067 26.7894 176.493 30.2712C176.03 33.0847 175.797 35.9138 175.557 38.7509C175.468 39.8086 175.035 42.0801 175.819 42.8297" stroke="black" stroke-width="3" stroke-linecap="round"/>
<path d="M193 3.22248C193 -0.72637 192.274 11.0901 191.99 15.0296C191.708 18.9302 192.005 22.9941 190.979 26.8009C190.626 28.1124 190.037 29.6274 191.653 29.6274" stroke="black" stroke-width="3" stroke-linecap="round"/>
<path d="M188.957 39.9319C189.637 39.8936 190.267 39.3194 190.267 40.3075C190.267 41.3137 189.4 43.1162 188.115 43.1162C186.641 43.1162 188.567 38.5158 189.968 41.8639" stroke="black" stroke-width="3" stroke-linecap="round"/>
<defs>
<clipPath id="clip0_103_1247">
<rect width="182" height="224.54" fill="white" transform="translate(0 1.11255)"/>
</clipPath>
</defs>
</svg>
